<?xml version="1.0" standalone="no"?>
<!DOCTYPE svg PUBLIC "-//W3C//DTD SVG 20010904//EN"
 "http://www.w3.org/TR/2001/REC-SVG-20010904/DTD/svg10.dtd">
<svg version="1.0" xmlns="http://www.w3.org/2000/svg"
 width="512.000000pt" height="512.000000pt" viewBox="0 0 512.000000 512.000000"
 preserveAspectRatio="xMidYMid meet">
<metadata>
Created by potrace 1.11, written by Peter Selinger 2001-2013
</metadata>
<g transform="translate(0.000000,512.000000) scale(0.100000,-0.100000)"
fill="#efc75e" stroke="none">
<path d="M2315 4898 c-292 -29 -649 -143 -902 -288 -580 -333 -978 -860 -1137
-1505 -36 -148 -66 -374 -66 -502 0 -39 2 -43 25 -43 24 0 25 -2 25 -68 0
-226 75 -581 175 -830 19 -47 33 -87 31 -89 -5 -5 -100 192 -129 267 -3 8 -6
10 -6 3 -1 -7 17 -62 38 -122 159 -445 472 -839 897 -1127 133 -90 386 -214
541 -265 469 -152 977 -159 1451 -18 131 39 194 65 346 141 163 81 221 116
356 217 214 158 429 387 577 613 81 124 211 391 257 530 87 266 121 506 113
813 -9 368 -70 624 -231 960 -204 425 -534 775 -969 1025 -260 149 -611 259
-921 289 -127 13 -342 12 -471 -1z m481 -778 c351 -27 652 -154 841 -354 90
-94 118 -151 117 -236 0 -138 -105 -243 -244 -243 -83 0 -122 23 -229 131
-111 111 -195 164 -336 211 -262 87 -581 53 -818 -87 -102 -60 -248 -198 -316
-299 -145 -214 -222 -484 -207 -719 23 -340 119 -577 311 -769 211 -212 490
-305 827 -277 338 29 610 233 705 529 21 67 23 83 13 116 -21 71 -26 72 -354
69 -188 -2 -301 0 -319 7 -77 30 -132 129 -130 238 1 101 47 162 141 189 77
23 818 15 902 -9 140 -40 214 -95 264 -195 112 -224 -1 -665 -244 -951 -134
-157 -232 -237 -400 -324 -206 -107 -423 -157 -685 -157 -311 0 -563 70 -825
228 -102 62 -137 90 -261 212 -109 107 -197 228 -264 360 -40 80 -102 243
-114 302 -5 24 -16 75 -25 113 -18 77 -40 326 -32 353 3 9 10 70 16 135 20
215 86 436 186 627 78 148 153 248 274 370 250 251 584 402 950 429 58 5 112
9 120 9 8 1 69 -3 136 -8z"/>
<path d="M321 1874 c0 -11 3 -14 6 -6 3 7 2 16 -1 19 -3 4 -6 -2 -5 -13z"/>
</g>
</svg>
